<svg width="31" height="30" viewBox="0 0 31 30" fill="none" xmlns="http://www.w3.org/2000/svg">
<path d="M24.5 24C22.835 24 21.5 25.335 21.5 27C21.5 27.7956 21.8161 28.5587 22.3787 29.1213C22.9413 29.6839 23.7043 30 24.5 30C25.2956 30 26.0587 29.6839 26.6213 29.1213C27.1839 28.5587 27.5 27.7956 27.5 27C27.5 25.335 26.15 24 24.5 24ZM0.5 0V3H3.5L8.9 14.385L6.86 18.06C6.635 18.48 6.5 18.975 6.5 19.5C6.5 20.2956 6.81607 21.0587 7.37868 21.6213C7.94129 22.1839 8.70435 22.5 9.5 22.5H27.5V19.5H10.13C10.0305 19.5 9.93516 19.4605 9.86483 19.3902C9.79451 19.3198 9.755 19.2245 9.755 19.125C9.755 19.05 9.77 18.99 9.8 18.945L11.15 16.5H22.325C23.45 16.5 24.44 15.87 24.95 14.955L30.32 5.25C30.425 5.01 30.5 4.755 30.5 4.5C30.5 4.10218 30.342 3.72064 30.0607 3.43934C29.7794 3.15804 29.3978 3 29 3H6.815L5.405 0H0.5ZM9.5 24C7.835 24 6.5 25.335 6.5 27C6.5 27.7956 6.81607 28.5587 7.37868 29.1213C7.94129 29.6839 8.70435 30 9.5 30C10.2956 30 11.0587 29.6839 11.6213 29.1213C12.1839 28.5587 12.5 27.7956 12.5 27C12.5 25.335 11.15 24 9.5 24Z" fill="white"/>
</svg>
