<svg width="32" height="32" viewBox="0 0 32 32" fill="none" xmlns="http://www.w3.org/2000/svg">
<g clip-path="url(#clip0)">
<path d="M27.111 5.33301H4.88873C3.66206 5.33445 2.66795 6.32856 2.6665 7.55523V16.4441C2.66795 17.6708 3.66206 18.6649 4.88873 18.6663H27.111C28.3376 18.6649 29.3317 17.6708 29.3332 16.4441V7.55523C29.3317 6.32856 28.3376 5.33445 27.111 5.33301ZM5.77762 6.2219H26.2221V7.55523C26.2221 8.29162 25.6251 8.88856 24.8887 8.88856H7.11095C6.37456 8.88856 5.77762 8.29162 5.77762 7.55523V6.2219ZM26.2221 17.7775H5.77762V17.333H26.2221V17.7775ZM26.2221 16.4441H5.77762V15.9997H26.2221V16.4441ZM26.2221 15.1108H5.77762V14.6663H26.2221V15.1108ZM28.4443 16.4441C28.4443 17.1805 27.8473 17.7775 27.111 17.7775V14.2219C27.111 13.9765 26.912 13.7775 26.6665 13.7775H5.33317C5.08773 13.7775 4.88873 13.9765 4.88873 14.2219V17.7775C4.15234 17.7775 3.55539 17.1805 3.55539 16.4441V7.55523C3.55539 6.81884 4.15234 6.2219 4.88873 6.2219V7.55523C4.89017 8.7819 5.88428 9.77601 7.11095 9.77745H24.8887C26.1154 9.77601 27.1095 8.7819 27.111 7.55523V6.2219C27.8473 6.2219 28.4443 6.81884 28.4443 7.55523V16.4441Z" fill="black"/>
<path d="M17.333 12.4438H13.7775C13.532 12.4438 13.333 12.6428 13.333 12.8883C13.333 13.1337 13.532 13.3327 13.7775 13.3327H17.333C17.5785 13.3327 17.7775 13.1337 17.7775 12.8883C17.7775 12.6428 17.5785 12.4438 17.333 12.4438Z" fill="black"/>
<path d="M25.3337 10.6665H24.8893C24.6438 10.6665 24.4448 10.8655 24.4448 11.1109C24.4448 11.3564 24.6438 11.5554 24.8893 11.5554H25.3337C25.5792 11.5554 25.7782 11.3564 25.7782 11.1109C25.7782 10.8655 25.5792 10.6665 25.3337 10.6665Z" fill="black"/>
<path d="M27.1111 10.6665H26.6666C26.4212 10.6665 26.2222 10.8655 26.2222 11.1109C26.2222 11.3564 26.4212 11.5554 26.6666 11.5554H27.1111C27.3565 11.5554 27.5555 11.3564 27.5555 11.1109C27.5555 10.8655 27.3565 10.6665 27.1111 10.6665Z" fill="black"/>
<path d="M16.8889 19.9996C16.8889 19.7542 16.6899 19.5552 16.4444 19.5552C16.199 19.5552 16 19.7542 16 19.9996C16.008 20.3939 15.8772 20.7784 15.6302 21.0858C14.9381 22.0253 14.9381 23.3059 15.6302 24.2454C16.1231 24.8863 16.1231 25.7787 15.6302 26.4196C15.2857 26.8736 15.1029 27.4298 15.1111 27.9996C15.1111 28.2451 15.3101 28.4441 15.5555 28.4441C15.801 28.4441 16 28.2451 16 27.9996C15.9919 27.6051 16.1228 27.2202 16.3698 26.9125C17.0613 25.9725 17.0613 24.6921 16.3698 23.7521C15.8768 23.1115 15.8768 22.2193 16.3698 21.5787C16.7143 21.1251 16.897 20.5692 16.8889 19.9996Z" fill="black"/>
<path d="M13.3327 19.9996C13.3327 19.7542 13.1337 19.5552 12.8883 19.5552C12.6428 19.5552 12.4438 19.7542 12.4438 19.9996C12.4519 20.3939 12.321 20.7784 12.0741 21.0858C11.3819 22.0253 11.3819 23.3059 12.0741 24.2454C12.567 24.8863 12.567 25.7787 12.0741 26.4196C11.7295 26.8736 11.5468 27.4298 11.5549 27.9996C11.5549 28.2451 11.7539 28.4441 11.9994 28.4441C12.2448 28.4441 12.4438 28.2451 12.4438 27.9996C12.4357 27.6051 12.5666 27.2202 12.8136 26.9125C13.5051 25.9725 13.5051 24.6921 12.8136 23.7521C12.3207 23.1115 12.3207 22.2193 12.8136 21.5787C13.1582 21.1251 13.3409 20.5692 13.3327 19.9996Z" fill="black"/>
<path d="M20.4445 19.9996C20.4445 19.7542 20.2455 19.5552 20.0001 19.5552C19.7547 19.5552 19.5557 19.7542 19.5557 19.9996C19.5637 20.3939 19.4328 20.7784 19.1859 21.0858C18.4938 22.0253 18.4938 23.3059 19.1859 24.2454C19.6788 24.8863 19.6788 25.7787 19.1859 26.4196C18.8413 26.8736 18.6586 27.4298 18.6668 27.9996C18.6668 28.2451 18.8658 28.4441 19.1112 28.4441C19.3567 28.4441 19.5557 28.2451 19.5557 27.9996C19.5475 27.6051 19.6784 27.2202 19.9254 26.9125C20.6169 25.9725 20.6169 24.6921 19.9254 23.7521C19.4325 23.1115 19.4325 22.2193 19.9254 21.5787C20.27 21.1251 20.4527 20.5692 20.4445 19.9996Z" fill="black"/>
</g>
<defs>
<clipPath id="clip0">
<rect width="26.6667" height="26.6667" fill="white" transform="translate(2.6665 2.6665)"/>
</clipPath>
</defs>
</svg>
