<svg width="33" height="32" viewBox="0 0 33 32" fill="none" xmlns="http://www.w3.org/2000/svg">
<g clip-path="url(#clip0)">
<path d="M29.5743 16.3674C29.6637 16.1228 29.7129 15.86 29.7129 15.5861C29.7129 14.7772 29.2881 14.0628 28.6435 13.6414V7.97705C28.6435 6.68471 27.5592 5.6333 26.2265 5.6333H6.77349C5.44076 5.6333 4.35649 6.68471 4.35649 7.97705V13.6414C3.71191 14.0628 3.28711 14.7772 3.28711 15.5861C3.28711 15.86 3.33625 16.1228 3.42568 16.3674H2.75V26.3674H4.36133V23.9764H28.6387V26.3674H30.25V16.3674H29.5743ZM6.77349 7.1958H26.2265C26.6708 7.1958 27.0322 7.54627 27.0322 7.97705V13.2424H25.4232V12.4611C25.4232 11.1688 24.3389 10.1174 23.0062 10.1174H18.1113C17.4927 10.1174 16.9279 10.3441 16.5 10.7161C16.072 10.3441 15.5073 10.1174 14.8887 10.1174H9.99383C8.6611 10.1174 7.57684 11.1688 7.57684 12.4611V13.2424H5.96782V7.97705C5.96782 7.54627 6.32924 7.1958 6.77349 7.1958ZM15.6943 13.2424H9.18817V12.4611C9.18817 12.0303 9.54959 11.6799 9.99383 11.6799H14.8887C15.3329 11.6799 15.6943 12.0303 15.6943 12.4611V13.2424ZM17.3057 12.4611C17.3057 12.0303 17.6671 11.6799 18.1113 11.6799H23.0062C23.4504 11.6799 23.8118 12.0303 23.8118 12.4611V13.2424H17.3057V12.4611ZM4.89844 15.5861C4.89844 15.1553 5.25986 14.8049 5.7041 14.8049H27.2959C27.7401 14.8049 28.1016 15.1553 28.1016 15.5861C28.1016 16.0169 27.7401 16.3674 27.2959 16.3674H5.7041C5.25986 16.3674 4.89844 16.0169 4.89844 15.5861ZM4.36133 17.9299H28.6387V22.4139H4.36133V17.9299Z" fill="black"/>
</g>
<defs>
<clipPath id="clip0">
<rect width="27.5" height="26.6667" fill="white" transform="translate(2.75 2.6665)"/>
</clipPath>
</defs>
</svg>
