<svg width="35" height="35" viewBox="0 0 35 35" fill="none" xmlns="http://www.w3.org/2000/svg">
<g clip-path="url(#clip0)">
<path d="M34.2793 29.1333H1.1377V30.5742H34.2793V29.1333Z" fill="black"/>
<path d="M33.7777 6.43368C31.3708 5.03085 28.6359 5.77603 26.7658 6.64809L21.1909 9.24769L11.6029 4.42529L5.89294 4.67061L13.8104 12.6972L8.76459 15.0942L3.51489 13.0962L0 14.7351L3.17648 18.6796C2.84089 19.08 2.53678 19.6437 2.81286 20.2358C3.17345 21.009 4.23925 21.3987 5.98747 21.3986C6.34597 21.3986 6.73323 21.3823 7.14887 21.3494C9.06791 21.1978 11.1485 20.708 12.4494 20.1014L32.3774 10.8088C34.0986 10.0061 34.9559 9.16332 34.9984 8.23204C35.0205 7.74904 34.8266 7.04478 33.7777 6.43368ZM31.7683 9.50281L11.8404 18.7954C10.7321 19.3123 8.91236 19.7454 7.20456 19.8987C5.459 20.0554 4.52571 19.8586 4.21461 19.6915C4.27866 19.6039 4.39825 19.4661 4.61893 19.2719L5.13652 18.8163L2.27568 15.2638L3.57151 14.6595L8.82684 16.6597L16.2599 13.1288L9.19925 5.97077L11.2901 5.88093L21.167 10.8485L27.3746 7.95394C29.6417 6.89679 31.5518 6.80429 33.0521 7.6785L33.0521 7.67858C33.4302 7.89882 33.5623 8.09097 33.5589 8.16633C33.5587 8.17152 33.5154 8.68824 31.7683 9.50281Z" fill="black"/>
</g>
<defs>
<clipPath id="clip0">
<rect width="35" height="35" fill="white"/>
</clipPath>
</defs>
</svg>
