<svg width="35" height="35" viewBox="0 0 35 35" fill="none" xmlns="http://www.w3.org/2000/svg">
<path d="M22.9722 2.73438C22.5948 2.73438 22.2886 3.04063 22.2886 3.41797C22.2886 3.79531 22.5948 4.10156 22.9722 4.10156C23.3495 4.10156 23.6558 3.79531 23.6558 3.41797C23.6558 3.04063 23.3495 2.73438 22.9722 2.73438Z" fill="black"/>
<path d="M12.0347 2.73438C11.6573 2.73438 11.3511 3.04063 11.3511 3.41797C11.3511 3.79531 11.6573 4.10156 12.0347 4.10156C12.412 4.10156 12.7183 3.79531 12.7183 3.41797C12.7183 3.04063 12.412 2.73438 12.0347 2.73438Z" fill="black"/>
<path d="M31.7214 33.8437L27.198 29.118C29.0254 29.0525 30.4921 27.5463 30.4921 25.7031V5.41885C30.4921 4.31436 30.1061 3.23579 29.405 2.38178C28.7034 1.52797 27.7206 0.9396 26.6378 0.72543C24.2116 0.244043 21.7276 0 19.2546 0H15.6432C13.2911 0 10.8412 0.225312 8.36208 0.720781C6.13323 1.16669 4.51557 3.14029 4.51557 5.41338V25.7031C4.51557 27.5618 6.00717 29.0777 7.85609 29.1191L3.28155 33.8408C3.09048 34.0379 3.03593 34.3302 3.14305 34.5829C3.25003 34.8357 3.49797 35 3.7725 35H8.6602C8.87936 35 9.08519 34.8949 9.21377 34.7175L11.2874 31.8555H23.7812L25.8548 34.7175C25.9834 34.8949 26.1893 35 26.4083 35H31.2277C31.5015 35 31.7488 34.8366 31.8563 34.5849C31.9638 34.3331 31.9108 34.0415 31.7214 33.8437ZM5.88276 25.7031V5.41338C5.88276 3.78964 7.03824 2.37993 8.63012 2.06138C10.8616 1.6154 13.2195 1.36719 15.6431 1.36719H19.2545C21.6384 1.36719 24.0329 1.60241 26.372 2.06644C27.1454 2.21949 27.8474 2.63977 28.3484 3.24946C28.8491 3.85943 29.1249 4.62984 29.1249 5.41878V25.7031C29.1249 26.8339 28.2049 27.7539 27.0741 27.7539H7.93347C6.80274 27.7539 5.88276 26.8339 5.88276 25.7031ZM8.31136 33.6328H5.38661L9.75771 29.1211H11.5803L8.31136 33.6328ZM12.278 30.4883L13.2686 29.1211H21.8L22.7906 30.4883H12.278ZM26.7572 33.6328L23.4884 29.1211H25.3084L29.627 33.6328H26.7572Z" fill="black"/>
<path d="M27.0737 5.46875H7.93311C7.55563 5.46875 7.24951 5.77486 7.24951 6.15234V17.5C7.24951 17.8775 7.55563 18.1836 7.93311 18.1836H27.0737C27.4512 18.1836 27.7573 17.8775 27.7573 17.5V6.15234C27.7573 5.77486 27.4512 5.46875 27.0737 5.46875ZM16.8198 16.8164H8.6167V6.83594H16.8198V16.8164ZM26.3901 16.8164H18.187V6.83594H26.3901V16.8164Z" fill="black"/>
<path d="M20.2378 2.73438H14.769C14.3916 2.73438 14.0854 3.04049 14.0854 3.41797C14.0854 3.79545 14.3916 4.10156 14.769 4.10156H20.2378C20.6153 4.10156 20.9214 3.79545 20.9214 3.41797C20.9214 3.04049 20.6153 2.73438 20.2378 2.73438Z" fill="black"/>
<path d="M25.0229 20.2344C23.5152 20.2344 22.2886 21.461 22.2886 22.9688C22.2886 24.4765 23.5152 25.7031 25.0229 25.7031C26.5307 25.7031 27.7573 24.4765 27.7573 22.9688C27.7573 21.461 26.5307 20.2344 25.0229 20.2344ZM25.0229 24.3359C24.2691 24.3359 23.6558 23.7226 23.6558 22.9688C23.6558 22.2149 24.2691 21.6016 25.0229 21.6016C25.7768 21.6016 26.3901 22.2149 26.3901 22.9688C26.3901 23.7226 25.7768 24.3359 25.0229 24.3359Z" fill="black"/>
<path d="M9.98389 20.2344C8.47615 20.2344 7.24951 21.461 7.24951 22.9688C7.24951 24.4765 8.47622 25.7031 9.98389 25.7031C11.4916 25.7031 12.7183 24.4765 12.7183 22.9688C12.7183 21.461 11.4916 20.2344 9.98389 20.2344ZM9.98389 24.3359C9.23002 24.3359 8.6167 23.7226 8.6167 22.9688C8.6167 22.2149 9.23002 21.6016 9.98389 21.6016C10.7378 21.6016 11.3511 22.2149 11.3511 22.9688C11.3511 23.7226 10.7378 24.3359 9.98389 24.3359Z" fill="black"/>
<path d="M20.2378 20.918H14.769C14.3916 20.918 14.0854 21.2241 14.0854 21.6016C14.0854 21.979 14.3916 22.2852 14.769 22.2852H20.2378C20.6153 22.2852 20.9214 21.979 20.9214 21.6016C20.9214 21.2241 20.6153 20.918 20.2378 20.918Z" fill="black"/>
<path d="M20.2378 23.6523H14.769C14.3916 23.6523 14.0854 23.9585 14.0854 24.3359C14.0854 24.7134 14.3916 25.0195 14.769 25.0195H20.2378C20.6153 25.0195 20.9214 24.7134 20.9214 24.3359C20.9214 23.9585 20.6153 23.6523 20.2378 23.6523Z" fill="black"/>
</svg>
