<svg width="365" height="365" viewBox="0 0 365 365" fill="none" xmlns="http://www.w3.org/2000/svg">
<path d="M273.295 117.085L247.031 119.851L258.495 63.8466C259.525 58.8002 261.902 54.1274 265.378 50.3261C268.852 46.5248 273.293 43.7371 278.228 42.2602L330.953 26.4054C341.419 23.2687 351.969 31.0821 351.969 42.0321C351.969 52.3261 341.732 59.5121 332.066 56.0047L324.736 54.3507L295.195 63.1051C292.323 63.9601 289.723 65.5524 287.656 67.7236C285.59 69.8948 284.129 72.5693 283.418 75.4808L273.295 117.085Z" fill="#A2A2A2"/>
<path d="M246.061 235.967L227.783 313.672L205.57 305.83L219.257 235.967H246.061Z" fill="#A2A2A2"/>
<path d="M233.144 290.859H53.7236V314.614H229.095L233.144 290.859Z" fill="#A2A2A2"/>
<path d="M5.56099 137.103L26.691 240.101C28.3164 248.085 35.3313 253.79 43.4582 253.79H238.848C240.138 253.79 241.389 253.353 242.399 252.55C243.409 251.747 244.117 250.627 244.407 249.369L278.683 101.059C279.568 97.2668 276.489 93.7594 272.609 94.1016L20.7883 116.629C18.3885 116.843 16.061 117.561 13.9584 118.738C11.8558 119.914 10.0256 121.521 8.58782 123.455C7.15002 125.388 6.13709 127.603 5.61545 129.955C5.09382 132.307 5.07525 134.743 5.56099 137.103ZM45.3403 140.211L57.488 139.128C58.6719 139.021 59.8651 139.162 60.9914 139.543C62.1176 139.923 63.1525 140.533 64.0296 141.335C64.907 142.138 65.6075 143.114 66.0866 144.201C66.5657 145.289 66.813 146.465 66.8126 147.654V161.399C66.8126 166.132 62.9914 169.953 58.2579 169.953H45.4829C41.4336 169.953 37.9262 167.101 37.0992 163.109L35.2173 153.871C34.8846 152.297 34.8897 150.673 35.232 149.103C35.5744 147.532 36.2461 146.053 37.2032 144.761C38.1601 143.47 39.3804 142.397 40.783 141.613C42.1858 140.828 43.7392 140.351 45.3403 140.211ZM154.299 192.736H170.496C175.229 192.736 179.05 196.558 179.05 201.292V219.571C179.05 224.304 175.229 228.125 170.496 228.125H154.299C149.566 228.125 145.744 224.304 145.744 219.571V201.292C145.744 196.558 149.566 192.736 154.299 192.736ZM170.496 169.925H154.299C149.566 169.925 145.744 166.103 145.744 161.37V139.042C145.744 134.622 149.136 130.915 153.528 130.516L169.725 129.062C170.91 128.955 172.103 129.096 173.229 129.477C174.356 129.857 175.39 130.467 176.267 131.269C177.145 132.072 177.845 133.048 178.325 134.136C178.803 135.223 179.05 136.399 179.05 137.588V161.37C179.05 166.103 175.229 169.925 170.496 169.925ZM122.931 201.292V219.571C122.931 224.304 119.11 228.125 114.377 228.125H98.1798C93.4461 228.125 89.6251 224.304 89.6251 219.571V201.292C89.6251 196.558 93.4461 192.736 98.1798 192.736H114.377C119.11 192.736 122.931 196.558 122.931 201.292ZM114.377 169.925H98.1798C93.4461 169.925 89.6251 166.103 89.6251 161.37V144.061C89.6251 139.641 93.0184 135.934 97.4099 135.535L113.607 134.08C114.791 133.974 115.984 134.115 117.11 134.495C118.236 134.875 119.271 135.486 120.148 136.288C121.026 137.09 121.726 138.066 122.205 139.154C122.685 140.242 122.932 141.418 122.931 142.607V161.37C122.931 166.103 119.11 169.925 114.377 169.925ZM244.807 133.596L237.934 163.28C237.499 165.162 236.439 166.841 234.926 168.043C233.414 169.244 231.54 169.898 229.608 169.896H210.418C205.683 169.896 201.862 166.075 201.862 161.342V134.023C201.862 129.603 205.256 125.897 209.648 125.497L235.682 123.159C241.499 122.646 246.119 127.95 244.807 133.596ZM213.896 228.125H207.595C204.457 228.125 201.892 225.558 201.892 222.422V201.292C201.892 196.558 205.712 192.736 210.446 192.736H220.398C225.901 192.736 229.979 197.87 228.724 203.23L225.018 219.314C224.426 221.82 223.007 224.053 220.989 225.653C218.971 227.252 216.471 228.123 213.896 228.125ZM44.9126 201.206C44.0001 196.815 47.3649 192.708 51.8419 192.708H58.2579C62.9914 192.708 66.8126 196.529 66.8126 201.264V221.025C66.8126 221.953 66.6296 222.873 66.2742 223.732C65.9189 224.588 65.3979 225.369 64.7413 226.026C64.0846 226.681 63.305 227.203 62.447 227.559C61.5889 227.913 60.6694 228.097 59.7407 228.097C54.3227 228.097 49.6461 224.275 48.5626 218.972L44.9126 201.206Z" fill="#CBCCCE"/>
<path d="M215.407 334.574C232.731 334.574 246.775 320.53 246.775 303.206C246.775 285.883 232.731 271.84 215.407 271.84C198.084 271.84 184.041 285.883 184.041 303.206C184.041 320.53 198.084 334.574 215.407 334.574Z" fill="#CCCCCE"/>
<path d="M215.407 317.835C223.486 317.835 230.035 311.285 230.035 303.206C230.035 295.127 223.486 288.578 215.407 288.578C207.327 288.578 200.778 295.127 200.778 303.206C200.778 311.285 207.327 317.835 215.407 317.835Z" fill="#A2A2A2"/>
<path d="M64.7305 334.574C82.0541 334.574 96.0977 320.53 96.0977 303.206C96.0977 285.883 82.0541 271.84 64.7305 271.84C47.4068 271.84 33.3633 285.883 33.3633 303.206C33.3633 320.53 47.4068 334.574 64.7305 334.574Z" fill="#CCCCCE"/>
<path d="M64.73 317.835C72.8092 317.835 79.3586 311.285 79.3586 303.206C79.3586 295.127 72.8092 288.578 64.73 288.578C56.651 288.578 50.1016 295.127 50.1016 303.206C50.1016 311.285 56.651 317.835 64.73 317.835Z" fill="#A2A2A2"/>
<path d="M338.167 67.4679C349.837 67.4679 359.297 58.0077 359.297 46.3379C359.297 34.6681 349.837 25.2078 338.167 25.2078C326.496 25.2078 317.036 34.6681 317.036 46.3379C317.036 58.0077 326.496 67.4679 338.167 67.4679Z" fill="#A2A2A2"/>
</svg>
