<svg width="153" height="31" viewBox="0 0 153 31" fill="none" xmlns="http://www.w3.org/2000/svg">
<path d="M20.3967 6.99V29H15.3127V19.979H6.53966V29H1.45566V6.99H6.53966V15.515H15.3127V6.99H20.3967ZM30.1638 6.99H35.6508L43.2148 29H38.0068L36.3018 24.071H29.4508L27.7768 29H22.5688L30.1638 6.99ZM35.4648 20.568L32.8918 12.105L30.2568 20.568H35.4648ZM63.5794 23.358C63.5794 24.6187 63.2384 25.6727 62.5564 26.52C61.8744 27.3467 60.9651 27.9667 59.8284 28.38C58.7124 28.7933 57.4724 29 56.1084 29H45.3824V6.99H57.6274C58.6607 6.99 59.5494 7.269 60.2934 7.827C61.0374 8.36433 61.6161 9.067 62.0294 9.935C62.4427 10.803 62.6494 11.702 62.6494 12.632C62.6494 13.6653 62.3807 14.6573 61.8434 15.608C61.3061 16.5587 60.5207 17.2613 59.4874 17.716C60.7274 18.088 61.7194 18.7493 62.4634 19.7C63.2074 20.6507 63.5794 21.87 63.5794 23.358ZM50.4664 11.33V15.887H55.4574C56.0154 15.887 56.5114 15.701 56.9454 15.329C57.3794 14.957 57.5964 14.3783 57.5964 13.593C57.5964 12.8697 57.4001 12.3117 57.0074 11.919C56.6354 11.5263 56.1807 11.33 55.6434 11.33H50.4664ZM58.4024 22.335C58.4024 21.653 58.2061 21.0743 57.8134 20.599C57.4207 20.1237 56.9247 19.886 56.3254 19.886H50.4664V24.691H56.1084C56.7491 24.691 57.2864 24.474 57.7204 24.04C58.1751 23.5853 58.4024 23.017 58.4024 22.335ZM76.2148 29.186C74.5822 29.186 73.0942 28.876 71.7508 28.256C70.4282 27.6153 69.2812 26.768 68.3098 25.714C67.3385 24.6393 66.5945 23.4407 66.0778 22.118C65.5612 20.7747 65.3028 19.39 65.3028 17.964C65.3028 16.5173 65.5715 15.1327 66.1088 13.81C66.6668 12.4667 67.4315 11.2783 68.4028 10.245C69.3948 9.191 70.5625 8.36433 71.9058 7.765C73.2492 7.16567 74.7165 6.866 76.3078 6.866C77.9405 6.866 79.4182 7.18633 80.7408 7.827C82.0842 8.447 83.2312 9.29433 84.1818 10.369C85.1532 11.4437 85.8972 12.6527 86.4138 13.996C86.9305 15.3187 87.1888 16.6723 87.1888 18.057C87.1888 19.5037 86.9098 20.8987 86.3518 22.242C85.8145 23.5647 85.0498 24.753 84.0578 25.807C83.0865 26.8403 81.9292 27.667 80.5858 28.287C79.2632 28.8863 77.8062 29.186 76.2148 29.186ZM70.4798 18.026C70.4798 19.1627 70.6968 20.2373 71.1308 21.25C71.5648 22.242 72.2158 23.0583 73.0838 23.699C73.9518 24.3397 75.0058 24.66 76.2458 24.66C77.5272 24.66 78.5915 24.3293 79.4388 23.668C80.3068 23.0067 80.9475 22.1697 81.3608 21.157C81.7948 20.1237 82.0118 19.0593 82.0118 17.964C82.0118 16.8273 81.7845 15.763 81.3298 14.771C80.8958 13.7583 80.2448 12.942 79.3768 12.322C78.5295 11.702 77.4858 11.392 76.2458 11.392C74.9645 11.392 73.8898 11.7227 73.0218 12.384C72.1745 13.0247 71.5338 13.8513 71.0998 14.864C70.6865 15.8767 70.4798 16.9307 70.4798 18.026ZM99.5816 29.186C97.8249 29.186 96.3266 28.8967 95.0866 28.318C93.8466 27.7187 92.8339 26.9127 92.0486 25.9C91.2839 24.8667 90.7156 23.699 90.3436 22.397C89.9922 21.0743 89.8166 19.6897 89.8166 18.243V6.99H94.9006V18.243C94.9006 19.359 95.0452 20.4027 95.3346 21.374C95.6446 22.3453 96.1406 23.141 96.8226 23.761C97.5046 24.3603 98.4242 24.66 99.5816 24.66C100.76 24.66 101.69 24.35 102.372 23.73C103.054 23.11 103.539 22.3143 103.829 21.343C104.118 20.3717 104.263 19.3383 104.263 18.243V6.99H109.347V18.243C109.347 20.2683 109.006 22.1077 108.324 23.761C107.642 25.4143 106.577 26.737 105.131 27.729C103.705 28.7003 101.855 29.186 99.5816 29.186ZM131.483 23.358C131.483 24.6187 131.142 25.6727 130.46 26.52C129.778 27.3467 128.868 27.9667 127.732 28.38C126.616 28.7933 125.376 29 124.012 29H113.286V6.99H125.531C126.564 6.99 127.453 7.269 128.197 7.827C128.941 8.36433 129.519 9.067 129.933 9.935C130.346 10.803 130.553 11.702 130.553 12.632C130.553 13.6653 130.284 14.6573 129.747 15.608C129.209 16.5587 128.424 17.2613 127.391 17.716C128.631 18.088 129.623 18.7493 130.367 19.7C131.111 20.6507 131.483 21.87 131.483 23.358ZM118.37 11.33V15.887H123.361C123.919 15.887 124.415 15.701 124.849 15.329C125.283 14.957 125.5 14.3783 125.5 13.593C125.5 12.8697 125.303 12.3117 124.911 11.919C124.539 11.5263 124.084 11.33 123.547 11.33H118.37ZM126.306 22.335C126.306 21.653 126.109 21.0743 125.717 20.599C125.324 20.1237 124.828 19.886 124.229 19.886H118.37V24.691H124.012C124.652 24.691 125.19 24.474 125.624 24.04C126.078 23.5853 126.306 23.017 126.306 22.335ZM139.542 6.99H145.029L152.593 29H147.385L145.68 24.071H138.829L137.155 29H131.947L139.542 6.99ZM144.843 20.568L142.27 12.105L139.635 20.568H144.843Z" fill="white"/>
</svg>
