<svg width="21" height="17" viewBox="0 0 21 17" fill="none" xmlns="http://www.w3.org/2000/svg">
<path d="M18.0851 0.0852051H3.61706C2.12504 0.0852051 0.904297 1.30595 0.904297 2.79797V13.649C0.904297 15.1411 2.12504 16.3618 3.61706 16.3618H18.0851C19.5772 16.3618 20.7979 15.1411 20.7979 13.649V2.79797C20.7979 1.30595 19.5772 0.0852051 18.0851 0.0852051ZM3.61706 1.89372H18.0851C18.4378 1.89372 18.7362 2.10169 18.8899 2.4001L10.8511 8.02457L2.81228 2.4001C2.966 2.10169 3.2644 1.89372 3.61706 1.89372ZM18.0851 14.5533H3.61706C3.11972 14.5533 2.71281 14.1464 2.71281 13.649V4.53414L10.3357 9.86925C10.4894 9.97776 10.6703 10.032 10.8511 10.032C11.032 10.032 11.2128 9.97776 11.3665 9.86925L18.9894 4.53414V13.649C18.9894 14.1464 18.5825 14.5533 18.0851 14.5533Z" fill="white"/>
</svg>
