<svg width="21" height="21" viewBox="0 0 21 21" fill="none" xmlns="http://www.w3.org/2000/svg">
<path d="M17.0588 20.9366C16.9865 20.9366 16.9051 20.9366 16.8328 20.9275C13.912 20.6111 11.0727 19.5983 8.62215 18.0068C6.34342 16.56 4.37215 14.5887 2.92534 12.31C1.33385 9.85041 0.321082 7.00201 0.0136353 4.08126C-0.0587051 3.33978 0.158316 2.63446 0.628529 2.08286C1.0897 1.52222 1.74981 1.18765 2.46417 1.11531C2.54555 1.10626 2.62693 1.10626 2.70832 1.10626H5.42108C5.43012 1.10626 5.43917 1.10626 5.44821 1.10626C6.78651 1.10626 7.93491 2.10095 8.12481 3.43924C8.23332 4.24403 8.43225 5.03073 8.71257 5.79031C9.08332 6.77595 8.84821 7.89722 8.09768 8.64775L7.44661 9.29882C8.51363 10.9626 9.92427 12.3823 11.5971 13.4493L12.2482 12.7983C12.9987 12.0568 14.1291 11.8126 15.1147 12.1834C15.8652 12.4637 16.661 12.6626 17.4567 12.7621C18.8221 12.952 19.8259 14.1366 19.7987 15.502V18.2057C19.7987 18.9291 19.5184 19.6073 19.012 20.1228C18.5057 20.6382 17.8184 20.9185 17.095 20.9275C17.0769 20.9366 17.0679 20.9366 17.0588 20.9366ZM5.43917 2.91478C5.43012 2.91478 5.43012 2.91478 5.43917 2.91478H2.70832C2.38278 2.9419 2.16576 3.05041 2.01204 3.24031C1.85832 3.42116 1.78598 3.65627 1.80406 3.90041C2.08438 6.5318 2.99768 9.09988 4.44449 11.3334C5.75566 13.3951 7.53704 15.1765 9.59874 16.4876C11.8232 17.9345 14.3913 18.8387 17.0136 19.1281C17.3301 19.1642 17.5471 19.0376 17.719 18.8658C17.8908 18.694 17.9812 18.468 17.9812 18.2238V15.5111C17.9812 15.502 17.9812 15.493 17.9812 15.4839C17.9902 15.0228 17.6557 14.6339 17.2035 14.5706C16.2812 14.4531 15.3588 14.218 14.4727 13.8924C14.1381 13.7658 13.7674 13.8472 13.5142 14.0914L12.3658 15.2398C12.0764 15.5291 11.6333 15.5834 11.2807 15.3845C8.87534 14.019 6.88598 12.0206 5.52055 9.62435C5.32161 9.27169 5.37587 8.8286 5.66523 8.53924L6.81364 7.39084C7.05778 7.1286 7.13917 6.75786 7.01257 6.42329C6.678 5.53712 6.45193 4.61478 6.32534 3.68339C6.27108 3.24935 5.88225 2.91478 5.43917 2.91478ZM16.1727 9.19935C15.7477 9.19935 15.3679 8.90095 15.2865 8.4669C15.0062 7.01105 13.8849 5.88978 12.4291 5.60946C11.9408 5.50999 11.6152 5.03978 11.7147 4.55148C11.8142 4.06318 12.2844 3.73765 12.7727 3.83712C14.9519 4.26212 16.6338 5.94403 17.0588 8.12329C17.1583 8.61158 16.8328 9.09084 16.3445 9.18126C16.2812 9.19031 16.2269 9.19935 16.1727 9.19935ZM19.7897 9.19031C19.3376 9.19031 18.9397 8.84669 18.8945 8.38552C18.5147 5.0036 15.8833 2.38126 12.5014 2.00148C12.0041 1.94722 11.6514 1.49509 11.7057 1.0068C11.7599 0.509456 12.2211 0.147754 12.7003 0.211052C16.9323 0.681265 20.2147 3.96371 20.6849 8.18658C20.7392 8.68392 20.3865 9.12701 19.8892 9.19031C19.853 9.19031 19.8168 9.19031 19.7897 9.19031Z" fill="white"/>
</svg>
