<svg width="19" height="22" viewBox="0 0 19 22" fill="none" xmlns="http://www.w3.org/2000/svg">
<path fill-rule="evenodd" clip-rule="evenodd" d="M8.54521 21.612C8.68989 21.7115 8.87074 21.7657 9.04255 21.7657C9.21436 21.7657 9.39521 21.7115 9.53989 21.612C9.89255 21.3859 18.0851 15.8429 18.0851 9.10615C18.0851 4.1237 14.025 0.0635986 9.04255 0.0635986C4.06011 0.0635986 0 4.1237 0 9.10615C0 15.8429 8.19255 21.3859 8.54521 21.612ZM1.80851 9.10615C1.80851 5.11839 5.05479 1.87211 9.04255 1.87211C13.0303 1.87211 16.2766 5.11839 16.2766 9.10615C16.2766 13.9982 10.7606 18.4742 9.04255 19.7492C7.32447 18.4742 1.80851 13.9982 1.80851 9.10615ZM5.42553 9.10634C5.42553 11.1047 7.04415 12.7234 9.04255 12.7234C11.041 12.7234 12.6596 11.1047 12.6596 9.10634C12.6596 7.10793 11.041 5.48932 9.04255 5.48932C7.04415 5.48932 5.42553 7.10793 5.42553 9.10634ZM7.23404 9.10634C7.23404 8.11166 8.04787 7.29783 9.04255 7.29783C10.0372 7.29783 10.8511 8.11166 10.8511 9.10634C10.8511 10.101 10.0372 10.9148 9.04255 10.9148C8.04787 10.9148 7.23404 10.101 7.23404 9.10634Z" fill="white"/>
</svg>
