<svg width="32" height="32" viewBox="0 0 32 32" fill="none" xmlns="http://www.w3.org/2000/svg">
<path d="M10.6665 8H23.9998L30.6665 16V20H27.9998C27.9998 21.0609 27.5784 22.0783 26.8283 22.8284C26.0781 23.5786 25.0607 24 23.9998 24C22.939 24 21.9216 23.5786 21.1714 22.8284C20.4213 22.0783 19.9998 21.0609 19.9998 20H11.9998C11.9998 21.0609 11.5784 22.0783 10.8283 22.8284C10.0781 23.5786 9.0607 24 7.99984 24C6.93897 24 5.92156 23.5786 5.17141 22.8284C4.42127 22.0783 3.99984 21.0609 3.99984 20H1.33317V16C1.33317 14.52 2.51984 13.3333 3.99984 13.3333H6.66651L10.6665 8ZM23.3332 10H17.9998V13.3333H25.9998L23.3332 10ZM15.9998 10H11.3332L8.71984 13.3333H15.9998V10ZM23.9998 18C23.4694 18 22.9607 18.2107 22.5856 18.5858C22.2106 18.9609 21.9998 19.4696 21.9998 20C21.9998 20.5304 22.2106 21.0391 22.5856 21.4142C22.9607 21.7893 23.4694 22 23.9998 22C24.5303 22 25.039 21.7893 25.4141 21.4142C25.7891 21.0391 25.9998 20.5304 25.9998 20C25.9998 19.4696 25.7891 18.9609 25.4141 18.5858C25.039 18.2107 24.5303 18 23.9998 18V18ZM7.99984 18C7.46941 18 6.9607 18.2107 6.58563 18.5858C6.21055 18.9609 5.99984 19.4696 5.99984 20C5.99984 20.5304 6.21055 21.0391 6.58563 21.4142C6.9607 21.7893 7.46941 22 7.99984 22C8.53027 22 9.03898 21.7893 9.41405 21.4142C9.78912 21.0391 9.99984 20.5304 9.99984 20C9.99984 19.4696 9.78912 18.9609 9.41405 18.5858C9.03898 18.2107 8.53027 18 7.99984 18Z" fill="#363636"/>
</svg>
