<svg width="18" height="18" viewBox="0 0 18 18" fill="none" xmlns="http://www.w3.org/2000/svg">
<g clip-path="url(#clip0)">
<path d="M16.3901 2.35986L14.8901 0.859852C14.7436 0.713355 14.5063 0.713355 14.3599 0.859852C14.2134 1.00635 14.2134 1.24365 14.3599 1.39011L15.5947 2.62498L14.3599 3.85984C14.2896 3.93015 14.25 4.02536 14.25 4.12499V5.24999C14.25 6.07728 14.9228 6.75 15.75 6.75V13.125C15.75 13.3319 15.5819 13.5 15.375 13.5C15.1681 13.5 15 13.3319 15 13.125V12.375C15 11.7546 14.4954 11.25 13.875 11.25H13.5V1.50001C13.5 0.672715 12.8273 0 12 0H4.50002C3.67276 0 3.00001 0.672715 3.00001 1.50001V15C2.17275 15 1.5 15.6727 1.5 16.5V17.625C1.5 17.8323 1.66773 18 1.87501 18H14.625C14.8323 18 15 17.8323 15 17.625V16.5C15 15.6728 14.3273 15 13.5 15V12H13.875C14.0819 12 14.25 12.1681 14.25 12.375V13.125C14.25 13.7454 14.7547 14.25 15.375 14.25C15.9954 14.25 16.5 13.7454 16.5 13.125V2.62501C16.5 2.52538 16.4605 2.43018 16.3901 2.35986ZM12 6.38195C12 6.58923 11.8323 6.75696 11.625 6.75696H4.875C4.66772 6.75696 4.49999 6.58923 4.49999 6.38195V1.87499C4.49999 1.66771 4.66772 1.49998 4.875 1.49998H11.625C11.8323 1.49998 12 1.66771 12 1.87499V6.38195Z" fill="#363636"/>
</g>
<defs>
<clipPath id="clip0">
<rect width="18" height="18" fill="white"/>
</clipPath>
</defs>
</svg>
